# xmcd
#
# Track frame offsets: 
#        150
#        15900
#        31800
#        48750
#        60825
#        78825
#        92850
#        106575
#        129375
#        139575
#        153900
#        163650
#
# Disc length: 2469 seconds
#
# Revision: 0
# Processed by: cddbd v1.5.2PL0 Copyright (c) Steve Scherf et al.
# Submitted via: ExactAudioCopyFreeDBPlugin 1.0
#
DISCID=7809a30c
DTITLE=Sauce Boss - 100% Pure
DYEAR=2014
DGENRE=Blues
TTITLE0=Zipper Bird
TTITLE1=Marquis De Swamp
TTITLE2=Gonna Be All Right
TTITLE3=Chains
TTITLE4=Delta 9 Blues
TTITLE5=Peckerwood
TTITLE6=Chicago Combat Zone
TTITLE7=Cadillac Of A Woman
TTITLE8=Hey Wilbur
TTITLE9=Sun
TTITLE10=Song Of The Irish Band
TTITLE11=Outlaw Blues
EXTD=Bill Wharton is the Suace Boss
EXTT0=
EXTT1=
EXTT2=
EXTT3=
EXTT4=
EXTT5=
EXTT6=
EXTT7=
EXTT8=
EXTT9=
EXTT10=
EXTT11=
PLAYORDER=
